<svg preserveAspectRatio="none" overflow="visible" style="display: block;" width="20" height="20" viewBox="0 0 20 20" fill="none" xmlns="http://www.w3.org/2000/svg">
<g id="Frame 213">
<path id="Ellipse 14" d="M19.75 10C19.75 15.3848 15.3848 19.75 10 19.75C4.61522 19.75 0.25 15.3848 0.25 10C0.25 4.61522 4.61522 0.25 10 0.25C15.3848 0.25 19.75 4.61522 19.75 10Z" fill="white" stroke-width="0.5" stroke="#D3D4D6"/>
<g id="eva:arrow-ios-back-fill">
<path id="Vector" d="M15.25 8.6275C15.2504 8.73954 15.2257 8.85025 15.1776 8.95149C15.1296 9.05272 15.0595 9.14191 14.9725 9.2125L10.4725 12.835C10.3383 12.9453 10.17 13.0056 9.99625 13.0056C9.82253 13.0056 9.6542 12.9453 9.52 12.835L5.02 9.085C4.86684 8.9577 4.77052 8.77476 4.75224 8.57644C4.73395 8.37812 4.7952 8.18066 4.9225 8.0275C5.0498 7.87434 5.23274 7.77802 5.43106 7.75973C5.62938 7.74145 5.82684 7.8027 5.98 7.93L10 11.2825L14.02 8.0425C14.1301 7.95079 14.2641 7.89253 14.4063 7.87462C14.5485 7.85671 14.6928 7.8799 14.8222 7.94144C14.9516 8.00298 15.0606 8.1003 15.1365 8.22188C15.2123 8.34347 15.2517 8.48422 15.25 8.6275Z" fill="#5B6785"/>
</g>
</g>
</svg>
